# xmcd CD database file
#
# Track frame offsets:
#	150
#	2897
#	13592
#	26552
#	35777
#	48270
#	59177
#	74195
#	88045
#	102300
#	115167
#	124360
#	141105
#	157667
#	174885
#	188740
#	200957
#	218295
#	235725
#	247307
#	258800
#	273735
#	287462
#	299395
#	311592
#	325402
#	340420
#
# Disc length: 4697 seconds
#
# Revision: 0
# Processed by: cddbd v1.5.2PL0 Copyright (c) Steve Scherf et al.
# Submitted via: CDex 1.70beta2
#
DISCID=9f12571b
DTITLE=Willy Berking - Solistenparade
DYEAR=1963
DGENRE=Jazz
TTITLE0=Alaska Song
TTITLE1=Trumpet Jump
TTITLE2=Du bist meine grosse Leidenschaft
TTITLE3=Swing Akkordeon
TTITLE4=Klavierträume
TTITLE5=Whispering
TTITLE6=La belle rose
TTITLE7=Misty
TTITLE8=Trommy
TTITLE9=Stranger on the shore
TTITLE10=Olala
TTITLE11=What a wonderful world
TTITLE12=And why not
TTITLE13=Solitude
TTITLE14=Joseph, Joseph
TTITLE15=The shadow waltz
TTITLE16=The diplomat speaks
TTITLE17=Nuages
TTITLE18=Autumn leaves
TTITLE19=Willys jump
TTITLE20=St. Louis blues
TTITLE21=Yesterday
TTITLE22=Shine
TTITLE23=Deep purple
TTITLE24=Sophisticated lady
TTITLE25=Meditacao
TTITLE26=Ich steh' im Regen
EXTD=YEAR: 1963
EXTT0=
EXTT1=
EXTT2=
EXTT3=
EXTT4=
EXTT5=
EXTT6=
EXTT7=
EXTT8=
EXTT9=
EXTT10=
EXTT11=
EXTT12=
EXTT13=
EXTT14=
EXTT15=
EXTT16=
EXTT17=
EXTT18=
EXTT19=
EXTT20=
EXTT21=
EXTT22=
EXTT23=
EXTT24=
EXTT25=
EXTT26=
PLAYORDER=
